<svg width="53" height="42" viewBox="0 0 53 42" fill="none" xmlns="http://www.w3.org/2000/svg">
<path d="M26.2496 32.8124C20.0275 32.8124 14.9909 27.9964 14.5274 21.8933L5.92242 15.2431C4.79122 16.6622 3.75025 18.1626 2.91026 19.8032C2.72261 20.1744 2.62484 20.5845 2.62484 21.0004C2.62484 21.4163 2.72261 21.8264 2.91026 22.1976C7.35877 30.8773 16.1656 36.7498 26.2496 36.7498C28.457 36.7498 30.5865 36.4217 32.6389 35.8918L28.3823 32.5983C27.6794 32.7341 26.9655 32.8057 26.2496 32.8124ZM51.9923 37.5783L42.9239 30.5697C45.6786 28.2481 47.9442 25.402 49.5888 22.1968C49.7765 21.8256 49.8743 21.4155 49.8743 20.9996C49.8743 20.5837 49.7765 20.1735 49.5888 19.8024C45.1403 11.1227 36.3336 5.25016 26.2496 5.25016C22.0262 5.25528 17.8715 6.3185 14.1648 8.34271L3.72892 0.276658C3.59284 0.170763 3.43722 0.0927214 3.27096 0.0469932C3.1047 0.00126514 2.93106 -0.0112534 2.75996 0.0101531C2.58886 0.0315595 2.42366 0.0864714 2.27379 0.171751C2.12392 0.25703 1.99232 0.371005 1.88652 0.507163L0.276265 2.58007C0.0626566 2.85486 -0.0330599 3.20324 0.0101669 3.5486C0.0533938 3.89395 0.232024 4.20799 0.50677 4.42165L48.7702 41.7233C48.9063 41.8292 49.0619 41.9073 49.2281 41.953C49.3944 41.9987 49.568 42.0113 49.7391 41.9898C49.9102 41.9684 50.0755 41.9135 50.2253 41.8282C50.3752 41.743 50.5068 41.629 50.6126 41.4928L52.2237 39.4199C52.4372 39.145 52.5328 38.7966 52.4894 38.4512C52.446 38.1059 52.2672 37.7919 51.9923 37.5783ZM36.9217 25.93L33.6979 23.4379C33.9694 22.6533 34.1134 21.8302 34.1245 21C34.1405 19.7845 33.8712 18.5822 33.3383 17.4897C32.8053 16.3972 32.0236 15.4449 31.0558 14.7093C30.0881 13.9737 28.9613 13.4753 27.766 13.2541C26.5707 13.033 25.3402 13.0953 24.1734 13.436C24.668 14.1062 24.9356 14.917 24.9371 15.7501C24.9248 16.0273 24.8825 16.3023 24.8107 16.5704L18.7725 11.9036C20.87 10.1508 23.5161 9.18964 26.2496 9.18762C27.801 9.18676 29.3374 9.49171 30.771 10.085C32.2045 10.6783 33.507 11.5484 34.6041 12.6455C35.7011 13.7425 36.5712 15.045 37.1645 16.4786C37.7578 17.9121 38.0628 19.4485 38.0619 21C38.0619 22.7743 37.628 24.4281 36.9217 25.9308V25.93Z" fill="black"/>
</svg>
