<svg width="35" height="51" viewBox="0 0 35 51" fill="none" xmlns="http://www.w3.org/2000/svg">
<path d="M9.38066 44.9747C9.38164 45.589 9.56327 46.1905 9.90409 46.7022L11.573 49.211C11.8581 49.6398 12.2448 49.9916 12.6987 50.2348C13.1525 50.4781 13.6595 50.6055 14.1745 50.6055H20.2007C20.7157 50.6055 21.2227 50.4781 21.6766 50.2348C22.1305 49.9916 22.5172 49.6398 22.8022 49.211L24.4712 46.7022C24.8118 46.1905 24.9939 45.5895 24.9946 44.9747L24.9985 41.2297H9.37578L9.38066 44.9747ZM0 17.7927C0 22.1256 1.60641 26.0786 4.25382 29.0991C5.86706 30.9399 8.39045 34.7855 9.35234 38.0296C9.35625 38.055 9.35918 38.0803 9.36308 38.1057H25.0112C25.0151 38.0803 25.018 38.0559 25.0219 38.0296C25.9838 34.7855 28.5072 30.9399 30.1205 29.0991C32.7679 26.0786 34.3743 22.1256 34.3743 17.7927C34.3743 8.28215 26.6508 0.576256 17.1334 0.605552C7.17172 0.635825 0 8.70792 0 17.7927ZM17.1871 9.98035C12.8796 9.98035 9.3748 13.4852 9.3748 17.7927C9.3748 18.656 8.6756 19.3552 7.81233 19.3552C6.94907 19.3552 6.24987 18.656 6.24987 17.7927C6.24987 11.7616 11.156 6.85542 17.1871 6.85542C18.0504 6.85542 18.7496 7.55462 18.7496 8.41789C18.7496 9.28115 18.0504 9.98035 17.1871 9.98035Z" fill="#454545"/>
</svg>
