<svg width="116" height="56" viewBox="0 0 116 56" fill="none" xmlns="http://www.w3.org/2000/svg">
<rect width="116" height="56" fill="#3FF29B"/>
<path d="M23.25 35.4H28.47V21.6H23.43V18H32.25V35.4H37.11V39H23.25V35.4ZM56.2891 31.74C56.2891 32.98 56.0791 34.08 55.6591 35.04C55.2391 35.98 54.6691 36.78 53.9491 37.44C53.2291 38.08 52.3991 38.57 51.4591 38.91C50.5391 39.25 49.5691 39.42 48.5491 39.42C47.5291 39.42 46.5491 39.25 45.6091 38.91C44.6891 38.57 43.8691 38.08 43.1491 37.44C42.4291 36.78 41.8591 35.98 41.4391 35.04C41.0191 34.08 40.8091 32.98 40.8091 31.74V31.38C40.8091 30.16 41.0191 29.08 41.4391 28.14C41.8591 27.18 42.4291 26.37 43.1491 25.71C43.8691 25.05 44.6891 24.55 45.6091 24.21C46.5491 23.87 47.5291 23.7 48.5491 23.7C49.5691 23.7 50.5391 23.87 51.4591 24.21C52.3991 24.55 53.2291 25.05 53.9491 25.71C54.6691 26.37 55.2391 27.18 55.6591 28.14C56.0791 29.08 56.2891 30.16 56.2891 31.38V31.74ZM48.5491 35.82C49.0891 35.82 49.5991 35.73 50.0791 35.55C50.5591 35.37 50.9791 35.11 51.3391 34.77C51.6991 34.43 51.9791 34.02 52.1791 33.54C52.3991 33.04 52.5091 32.48 52.5091 31.86V31.26C52.5091 30.64 52.3991 30.09 52.1791 29.61C51.9791 29.11 51.6991 28.69 51.3391 28.35C50.9791 28.01 50.5591 27.75 50.0791 27.57C49.5991 27.39 49.0891 27.3 48.5491 27.3C48.0091 27.3 47.4991 27.39 47.0191 27.57C46.5391 27.75 46.1191 28.01 45.7591 28.35C45.3991 28.69 45.1091 29.11 44.8891 29.61C44.6891 30.09 44.5891 30.64 44.5891 31.26V31.86C44.5891 32.48 44.6891 33.04 44.8891 33.54C45.1091 34.02 45.3991 34.43 45.7591 34.77C46.1191 35.11 46.5391 35.37 47.0191 35.55C47.4991 35.73 48.0091 35.82 48.5491 35.82ZM70.6983 36.84H70.1583C69.9983 37.18 69.7983 37.51 69.5583 37.83C69.3383 38.13 69.0383 38.4 68.6583 38.64C68.2983 38.88 67.8583 39.07 67.3383 39.21C66.8383 39.35 66.2283 39.42 65.5083 39.42C64.5883 39.42 63.7283 39.26 62.9283 38.94C62.1483 38.6 61.4583 38.11 60.8583 37.47C60.2783 36.81 59.8183 36.01 59.4783 35.07C59.1583 34.13 58.9983 33.05 58.9983 31.83V31.29C58.9983 30.09 59.1683 29.02 59.5083 28.08C59.8683 27.14 60.3483 26.35 60.9483 25.71C61.5683 25.05 62.2783 24.55 63.0783 24.21C63.8983 23.87 64.7583 23.7 65.6583 23.7C66.8583 23.7 67.8083 23.93 68.5083 24.39C69.2083 24.83 69.7583 25.46 70.1583 26.28H70.6983V24.12H74.4783V42.66C74.4783 43.34 74.2583 43.9 73.8183 44.34C73.3983 44.78 72.8483 45 72.1683 45H62.1483V41.4H69.8883C70.4283 41.4 70.6983 41.1 70.6983 40.5V36.84ZM66.7383 35.82C67.9183 35.82 68.8683 35.45 69.5883 34.71C70.3283 33.95 70.6983 32.96 70.6983 31.74V31.38C70.6983 30.16 70.3283 29.18 69.5883 28.44C68.8683 27.68 67.9183 27.3 66.7383 27.3C65.5583 27.3 64.5983 27.67 63.8583 28.41C63.1383 29.13 62.7783 30.12 62.7783 31.38V31.74C62.7783 33 63.1383 34 63.8583 34.74C64.5983 35.46 65.5583 35.82 66.7383 35.82ZM93.0274 31.74C93.0274 32.98 92.8174 34.08 92.3974 35.04C91.9774 35.98 91.4074 36.78 90.6874 37.44C89.9674 38.08 89.1374 38.57 88.1974 38.91C87.2774 39.25 86.3074 39.42 85.2874 39.42C84.2674 39.42 83.2874 39.25 82.3474 38.91C81.4274 38.57 80.6074 38.08 79.8874 37.44C79.1674 36.78 78.5974 35.98 78.1774 35.04C77.7574 34.08 77.5474 32.98 77.5474 31.74V31.38C77.5474 30.16 77.7574 29.08 78.1774 28.14C78.5974 27.18 79.1674 26.37 79.8874 25.71C80.6074 25.05 81.4274 24.55 82.3474 24.21C83.2874 23.87 84.2674 23.7 85.2874 23.7C86.3074 23.7 87.2774 23.87 88.1974 24.21C89.1374 24.55 89.9674 25.05 90.6874 25.71C91.4074 26.37 91.9774 27.18 92.3974 28.14C92.8174 29.08 93.0274 30.16 93.0274 31.38V31.74ZM85.2874 35.82C85.8274 35.82 86.3374 35.73 86.8174 35.55C87.2974 35.37 87.7174 35.11 88.0774 34.77C88.4374 34.43 88.7174 34.02 88.9174 33.54C89.1374 33.04 89.2474 32.48 89.2474 31.86V31.26C89.2474 30.64 89.1374 30.09 88.9174 29.61C88.7174 29.11 88.4374 28.69 88.0774 28.35C87.7174 28.01 87.2974 27.75 86.8174 27.57C86.3374 27.39 85.8274 27.3 85.2874 27.3C84.7474 27.3 84.2374 27.39 83.7574 27.57C83.2774 27.75 82.8574 28.01 82.4974 28.35C82.1374 28.69 81.8474 29.11 81.6274 29.61C81.4274 30.09 81.3274 30.64 81.3274 31.26V31.86C81.3274 32.48 81.4274 33.04 81.6274 33.54C81.8474 34.02 82.1374 34.43 82.4974 34.77C82.8574 35.11 83.2774 35.37 83.7574 35.55C84.2374 35.73 84.7474 35.82 85.2874 35.82Z" fill="#454545"/>
</svg>

