<svg width="54" height="53" viewBox="0 0 54 53" fill="none" xmlns="http://www.w3.org/2000/svg">
<g filter="url(#filter0_d_642_1424)">
<path d="M36.291 31.1667H34.6452L34.0618 30.6042C36.5618 27.6875 37.8535 23.7084 37.1452 19.4792C36.166 13.6875 31.3327 9.06252 25.4993 8.35419C16.6868 7.27086 9.27018 14.6875 10.3535 23.5C11.0619 29.3334 15.6869 34.1667 21.4785 35.1459C25.7077 35.8542 29.6868 34.5625 32.6035 32.0625L33.166 32.6459V34.2917L42.0202 43.1459C42.8743 44 44.2702 44 45.1243 43.1459C45.9785 42.2917 45.9785 40.8959 45.1243 40.0417L36.291 31.1667ZM23.791 31.1667C18.6035 31.1667 14.416 26.9792 14.416 21.7917C14.416 16.6042 18.6035 12.4167 23.791 12.4167C28.9785 12.4167 33.166 16.6042 33.166 21.7917C33.166 26.9792 28.9785 31.1667 23.791 31.1667Z" fill="black"/>
</g>
<path d="M33.291 29.1667H31.6452L31.0619 28.6042C33.5619 25.6875 34.8535 21.7084 34.1452 17.4792C33.166 11.6875 28.3327 7.06252 22.4994 6.35419C13.6868 5.27085 6.27018 12.6875 7.35352 21.5C8.06185 27.3334 12.6869 32.1667 18.4785 33.1459C22.7077 33.8542 26.6869 32.5625 29.6035 30.0625L30.166 30.6459V32.2917L39.0202 41.1459C39.8744 42 41.2702 42 42.1244 41.1459C42.9785 40.2917 42.9785 38.8959 42.1244 38.0417L33.291 29.1667ZM20.791 29.1667C15.6035 29.1667 11.416 24.9792 11.416 19.7917C11.416 14.6042 15.6035 10.4167 20.791 10.4167C25.9785 10.4167 30.166 14.6042 30.166 19.7917C30.166 24.9792 25.9785 29.1667 20.791 29.1667Z" fill="white"/>
<defs>
<filter id="filter0_d_642_1424" x="6.24805" y="8.24872" width="43.5166" height="43.5378" filterUnits="userSpaceOnUse" color-interpolation-filters="sRGB">
<feFlood flood-opacity="0" result="BackgroundImageFix"/>
<feColorMatrix in="SourceAlpha" type="matrix" values="0 0 0 0 0 0 0 0 0 0 0 0 0 0 0 0 0 0 127 0" result="hardAlpha"/>
<feOffset dy="4"/>
<feGaussianBlur stdDeviation="2"/>
<feComposite in2="hardAlpha" operator="out"/>
<feColorMatrix type="matrix" values="0 0 0 0 0 0 0 0 0 0 0 0 0 0 0 0 0 0 0.25 0"/>
<feBlend mode="normal" in2="BackgroundImageFix" result="effect1_dropShadow_642_1424"/>
<feBlend mode="normal" in="SourceGraphic" in2="effect1_dropShadow_642_1424" result="shape"/>
</filter>
</defs>
</svg>
