<svg width="65" height="46" viewBox="0 0 65 46" fill="none" xmlns="http://www.w3.org/2000/svg">
<path d="M54.4 21.2438C54.7844 20.2406 55 19.1437 55 18C55 13.0312 50.9688 9 46 9C44.1531 9 42.4281 9.5625 41.0031 10.5187C38.4062 6.01875 33.5594 3 28 3C19.7125 3 13 9.7125 13 18C13 18.2531 13.0094 18.5063 13.0187 18.7594C7.76875 20.6063 4 25.6125 4 31.5C4 38.9531 10.0469 45 17.5 45H52C58.6281 45 64 39.6281 64 33C64 27.1969 59.875 22.35 54.4 21.2438ZM40.8812 27H34.75V37.5C34.75 38.325 34.075 39 33.25 39H28.75C27.925 39 27.25 38.325 27.25 37.5V27H21.1188C19.7781 27 19.1125 25.3875 20.0594 24.4406L29.9406 14.5594C30.5219 13.9781 31.4781 13.9781 32.0594 14.5594L41.9406 24.4406C42.8875 25.3875 42.2125 27 40.8812 27Z" fill="black" stroke="black"/>
<path d="M51.4 19.2438C51.7844 18.2406 52 17.1437 52 16C52 11.0312 47.9688 7 43 7C41.1531 7 39.4281 7.5625 38.0031 8.51875C35.4062 4.01875 30.5594 1 25 1C16.7125 1 10 7.7125 10 16C10 16.2531 10.0094 16.5063 10.0187 16.7594C4.76875 18.6063 1 23.6125 1 29.5C1 36.9531 7.04688 43 14.5 43H49C55.6281 43 61 37.6281 61 31C61 25.1969 56.875 20.35 51.4 19.2438ZM37.8812 25H31.75V35.5C31.75 36.325 31.075 37 30.25 37H25.75C24.925 37 24.25 36.325 24.25 35.5V25H18.1188C16.7781 25 16.1125 23.3875 17.0594 22.4406L26.9406 12.5594C27.5219 11.9781 28.4781 11.9781 29.0594 12.5594L38.9406 22.4406C39.8875 23.3875 39.2125 25 37.8812 25Z" fill="#3E347B" stroke="black"/>
</svg>
