<svg width="45" height="45" viewBox="0 0 45 45" fill="none" xmlns="http://www.w3.org/2000/svg">
<path d="M9.50006 31.8237L9.49772 31.9789L9.58364 32.1081C12.4942 36.4853 17.4818 39.375 23.125 39.375C28.7682 39.375 33.7558 36.4853 36.6664 32.1081L36.7523 31.9789L36.7499 31.8237C36.7308 30.5554 36.0801 29.47 35.1252 28.5769C34.1725 27.6857 32.8831 26.9516 31.4881 26.3687C28.7002 25.2039 25.37 24.5938 23.125 24.5938C20.8692 24.5938 17.5389 25.2038 14.7536 26.3688C13.3598 26.9517 12.0724 27.6859 11.1213 28.5772C10.1681 29.4705 9.51917 30.5558 9.50006 31.8237ZM1.75 23.125C1.75 11.3261 11.3261 1.75 23.125 1.75C34.9239 1.75 44.5 11.3261 44.5 23.125C44.5 34.9239 34.9239 44.5 23.125 44.5C11.3261 44.5 1.75 34.9239 1.75 23.125ZM30.1875 14.375C30.1875 10.4676 27.0324 7.3125 23.125 7.3125C19.2176 7.3125 16.0625 10.4676 16.0625 14.375C16.0625 18.2824 19.2176 21.4375 23.125 21.4375C27.0324 21.4375 30.1875 18.2824 30.1875 14.375Z" fill="black" stroke="black"/>
<path d="M8.25006 30.5737L8.24772 30.7289L8.33364 30.8581C11.2442 35.2353 16.2318 38.125 21.875 38.125C27.5182 38.125 32.5058 35.2353 35.4164 30.8581L35.5023 30.7289L35.4999 30.5737C35.4808 29.3054 34.8301 28.22 33.8752 27.3269C32.9225 26.4357 31.6331 25.7016 30.2381 25.1187C27.4502 23.9539 24.12 23.3438 21.875 23.3438C19.6192 23.3438 16.2889 23.9538 13.5036 25.1188C12.1098 25.7017 10.8224 26.4359 9.87133 27.3272C8.91814 28.2205 8.26917 29.3058 8.25006 30.5737ZM0.5 21.875C0.5 10.0761 10.0761 0.5 21.875 0.5C33.6739 0.5 43.25 10.0761 43.25 21.875C43.25 33.6739 33.6739 43.25 21.875 43.25C10.0761 43.25 0.5 33.6739 0.5 21.875ZM28.9375 13.125C28.9375 9.21761 25.7824 6.0625 21.875 6.0625C17.9676 6.0625 14.8125 9.21761 14.8125 13.125C14.8125 17.0324 17.9676 20.1875 21.875 20.1875C25.7824 20.1875 28.9375 17.0324 28.9375 13.125Z" fill="#3FF29B" stroke="black"/>
</svg>