<svg width="43" height="43" viewBox="0 0 43 43" fill="none" xmlns="http://www.w3.org/2000/svg">
<g filter="url(#filter0_d_204_131)">
<path d="M10.5001 24.4575L10.4977 24.6126L10.5836 24.7419C12.9299 28.2703 16.9506 30.6 21.5 30.6C26.0494 30.6 30.0701 28.2703 32.4164 24.7419L32.5023 24.6126L32.4999 24.4575C32.4841 23.4068 31.9446 22.5144 31.1685 21.7885C30.3944 21.0644 29.3511 20.4716 28.229 20.0027C25.9869 19.0659 23.3097 18.575 21.5 18.575C19.6817 18.575 17.0044 19.0658 14.7643 20.0028C13.6432 20.4717 12.6014 21.0646 11.8287 21.7888C11.0538 22.5149 10.5159 23.4072 10.5001 24.4575ZM4.5 17.5C4.5 8.11614 12.1161 0.5 21.5 0.5C30.8839 0.5 38.5 8.11614 38.5 17.5C38.5 26.8839 30.8839 34.5 21.5 34.5C12.1161 34.5 4.5 26.8839 4.5 17.5ZM27.25 10.5C27.25 7.31886 24.6811 4.75 21.5 4.75C18.3189 4.75 15.75 7.31886 15.75 10.5C15.75 13.6811 18.3189 16.25 21.5 16.25C24.6811 16.25 27.25 13.6811 27.25 10.5Z" fill="#3FF29B" fill-opacity="0.8" stroke="black"/>
</g>
<defs>
<filter id="filter0_d_204_131" x="0" y="0" width="43" height="43" filterUnits="userSpaceOnUse" color-interpolation-filters="sRGB">
<feFlood flood-opacity="0" result="BackgroundImageFix"/>
<feColorMatrix in="SourceAlpha" type="matrix" values="0 0 0 0 0 0 0 0 0 0 0 0 0 0 0 0 0 0 127 0" result="hardAlpha"/>
<feOffset dy="4"/>
<feGaussianBlur stdDeviation="2"/>
<feComposite in2="hardAlpha" operator="out"/>
<feColorMatrix type="matrix" values="0 0 0 0 0 0 0 0 0 0 0 0 0 0 0 0 0 0 0.25 0"/>
<feBlend mode="normal" in2="BackgroundImageFix" result="effect1_dropShadow_204_131"/>
<feBlend mode="normal" in="SourceGraphic" in2="effect1_dropShadow_204_131" result="shape"/>
</filter>
</defs>
</svg>
