<svg width="60" height="55" viewBox="0 0 908 818" fill="none" xmlns="http://www.w3.org/2000/svg">
    <path fill-rule="evenodd" clip-rule="evenodd" d="M846.753 333.88C840.84 256.962 814.053 183.114 769.279 120.292L603.448 238.482C626.719 271.132 640.64 309.512 643.713 349.488C646.786 389.464 638.894 429.521 620.888 465.344C602.881 501.167 575.443 531.399 541.527 552.783C507.611 574.166 468.504 585.891 428.419 586.695C388.333 587.499 348.787 577.351 314.042 557.345C279.296 537.338 250.667 508.231 231.239 473.159C211.81 438.087 202.319 398.378 203.787 358.311C205.254 318.244 217.626 279.337 239.568 245.78L69.1321 134.334C26.9124 198.901 3.10844 273.763 0.284275 350.857C-2.53989 427.95 15.7228 504.353 53.1051 571.836C90.4874 639.319 145.573 695.325 212.427 733.82C279.282 772.314 355.372 791.84 432.502 790.293C509.632 788.746 584.878 766.186 650.135 725.041C652.479 723.564 654.806 722.064 657.117 720.543L786.545 817.903L907.705 656.836L794.84 571.935C797.603 566.951 800.269 561.905 802.835 556.8C837.481 487.873 852.666 410.799 846.753 333.88Z" fill="#454545"/>
    <path d="M326 0L528 0L528 454L326 454L326 0Z" fill="#454545"/>
</svg>
