<svg width="47" height="52" viewBox="0 0 47 52" fill="none" xmlns="http://www.w3.org/2000/svg">
<g filter="url(#filter0_d_889_2667)">
<path d="M34.125 30.5312V30.7384L34.2714 30.8848L38.5 35.1134V36.5938H4.5V35.1134L8.72855 30.8848L8.875 30.7384V30.5312V19.5938C8.875 13.0306 12.3328 7.67717 18.334 6.25528L18.7188 6.16413V5.76875V4.28125C18.7188 2.74177 19.9605 1.5 21.5 1.5C23.0395 1.5 24.2812 2.74177 24.2812 4.28125V5.76875V6.16381L24.6656 6.25519C30.6456 7.67701 34.125 13.0529 34.125 19.5938V30.5312ZM25.3426 39.7812C25.0952 41.6777 23.4608 43.1562 21.5 43.1562C19.5205 43.1562 17.9017 41.679 17.657 39.7812H25.3426Z" fill="black" stroke="black"/>
</g>
<circle cx="39" cy="34" r="7.5" fill="black" stroke="black"/>
<path d="M38.1216 33.4185H38.9487C39.2137 33.4185 39.4321 33.3737 39.604 33.2842C39.7759 33.1911 39.903 33.0622 39.9854 32.8975C40.0713 32.7292 40.1143 32.534 40.1143 32.312C40.1143 32.1115 40.0749 31.9342 39.9961 31.7803C39.9209 31.6227 39.8045 31.501 39.647 31.415C39.4894 31.3255 39.2907 31.2808 39.0508 31.2808C38.861 31.2808 38.6855 31.3184 38.5244 31.3936C38.3633 31.4688 38.2344 31.5744 38.1377 31.7104C38.041 31.8465 37.9927 32.0112 37.9927 32.2046H36.4404C36.4404 31.7749 36.555 31.4007 36.7842 31.082C37.0169 30.7633 37.3285 30.5145 37.7188 30.3354C38.109 30.1564 38.5387 30.0669 39.0078 30.0669C39.5378 30.0669 40.0015 30.1528 40.3989 30.3247C40.7964 30.493 41.1061 30.7419 41.3281 31.0713C41.5501 31.4007 41.6611 31.8089 41.6611 32.2959C41.6611 32.543 41.6038 32.7829 41.4893 33.0156C41.3747 33.2448 41.21 33.4525 40.9951 33.6387C40.7839 33.8213 40.526 33.9681 40.2217 34.0791C39.9173 34.1865 39.5754 34.2402 39.1958 34.2402H38.1216V33.4185ZM38.1216 34.5947V33.7944H39.1958C39.6219 33.7944 39.9961 33.8428 40.3184 33.9395C40.6406 34.0361 40.911 34.1758 41.1294 34.3584C41.3478 34.5374 41.5125 34.7505 41.6235 34.9976C41.7345 35.241 41.79 35.5114 41.79 35.8086C41.79 36.1738 41.7202 36.4997 41.5806 36.7861C41.4409 37.069 41.244 37.3089 40.9897 37.5059C40.7391 37.7028 40.4455 37.8532 40.1089 37.957C39.7723 38.0573 39.4053 38.1074 39.0078 38.1074C38.6784 38.1074 38.3543 38.0627 38.0356 37.9731C37.7205 37.88 37.4341 37.7422 37.1763 37.5596C36.922 37.3734 36.7179 37.1406 36.564 36.8613C36.4136 36.5785 36.3384 36.2437 36.3384 35.8569H37.8906C37.8906 36.0575 37.9408 36.2365 38.041 36.394C38.1413 36.5516 38.2791 36.6751 38.4546 36.7646C38.6336 36.8542 38.8324 36.8989 39.0508 36.8989C39.2979 36.8989 39.5091 36.8542 39.6846 36.7646C39.8636 36.6715 39.9997 36.5426 40.0928 36.3779C40.1895 36.2096 40.2378 36.0145 40.2378 35.7925C40.2378 35.506 40.1859 35.2769 40.082 35.105C39.9782 34.9295 39.8296 34.8006 39.6362 34.7183C39.4429 34.6359 39.2137 34.5947 38.9487 34.5947H38.1216Z" fill="#1E1E1E"/>
<path d="M33.125 29.5312V29.7384L33.2714 29.8848L37.5 34.1134V35.5938H3.5V34.1134L7.72855 29.8848L7.875 29.7384V29.5312V18.5938C7.875 12.0306 11.3328 6.67717 17.334 5.25528L17.7188 5.16413V4.76875V3.28125C17.7188 1.74177 18.9605 0.5 20.5 0.5C22.0395 0.5 23.2812 1.74177 23.2812 3.28125V4.76875V5.16381L23.6656 5.25519C29.6456 6.67701 33.125 12.0529 33.125 18.5938V29.5312ZM24.3426 38.7812C24.0952 40.6777 22.4608 42.1562 20.5 42.1562C18.5205 42.1562 16.9017 40.679 16.657 38.7812H24.3426Z" fill="#F2DB3F" stroke="black"/>
<circle cx="38" cy="33" r="7.5" fill="#F2953F" stroke="black"/>
<defs>
<filter id="filter0_d_889_2667" x="0" y="1" width="43" height="50.6562" filterUnits="userSpaceOnUse" color-interpolation-filters="sRGB">
<feFlood flood-opacity="0" result="BackgroundImageFix"/>
<feColorMatrix in="SourceAlpha" type="matrix" values="0 0 0 0 0 0 0 0 0 0 0 0 0 0 0 0 0 0 127 0" result="hardAlpha"/>
<feOffset dy="4"/>
<feGaussianBlur stdDeviation="2"/>
<feComposite in2="hardAlpha" operator="out"/>
<feColorMatrix type="matrix" values="0 0 0 0 0 0 0 0 0 0 0 0 0 0 0 0 0 0 0.25 0"/>
<feBlend mode="normal" in2="BackgroundImageFix" result="effect1_dropShadow_889_2667"/>
<feBlend mode="normal" in="SourceGraphic" in2="effect1_dropShadow_889_2667" result="shape"/>
</filter>
</defs>
</svg>